<?xml version="1.0" encoding="UTF-8" standalone="no"?>
<!-- Created with Inkscape (http://www.inkscape.org/) -->

<svg
   xmlns:dc="http://purl.org/dc/elements/1.1/"
   xmlns:cc="http://creativecommons.org/ns#"
   xmlns:rdf="http://www.w3.org/1999/02/22-rdf-syntax-ns#"
   xmlns:svg="http://www.w3.org/2000/svg"
   xmlns="http://www.w3.org/2000/svg"
   xmlns:sodipodi="http://sodipodi.sourceforge.net/DTD/sodipodi-0.dtd"
   xmlns:inkscape="http://www.inkscape.org/namespaces/inkscape"
   width="262"
   height="262"
   id="svg2604"
   sodipodi:version="0.32"
   inkscape:version="0.48.3.1 r9886"
   sodipodi:docname="logo.svg"
   inkscape:output_extension="org.inkscape.output.svg.inkscape"
   version="1.1">
  <defs
     id="defs2606">
    <inkscape:perspective
       sodipodi:type="inkscape:persp3d"
       inkscape:vp_x="0 : 526.18109 : 1"
       inkscape:vp_y="0 : 1000 : 0"
       inkscape:vp_z="744.09448 : 526.18109 : 1"
       inkscape:persp3d-origin="372.04724 : 350.78739 : 1"
       id="perspective2612" />
  </defs>
  <sodipodi:namedview
     id="base"
     pagecolor="#ffffff"
     bordercolor="#666666"
     borderopacity="1.0"
     inkscape:pageopacity="0.0"
     inkscape:pageshadow="2"
     inkscape:zoom="1.4142136"
     inkscape:cx="132.16151"
     inkscape:cy="178.3992"
     inkscape:document-units="px"
     inkscape:current-layer="layer1"
     showgrid="false"
     showguides="true"
     inkscape:guide-bbox="true"
     inkscape:window-width="1360"
     inkscape:window-height="709"
     inkscape:window-x="0"
     inkscape:window-y="27"
     inkscape:window-maximized="1">
    <sodipodi:guide
       orientation="0,1"
       position="228.17249,-0.29727492"
       id="guide2656" />
  </sodipodi:namedview>
  <metadata
     id="metadata2609">
    <rdf:RDF>
      <cc:Work
         rdf:about="">
        <dc:format>image/svg+xml</dc:format>
        <dc:type
           rdf:resource="http://purl.org/dc/dcmitype/StillImage" />
        <dc:title></dc:title>
      </cc:Work>
    </rdf:RDF>
  </metadata>
  <g
     inkscape:label="Capa 1"
     inkscape:groupmode="layer"
     id="layer1"
     transform="translate(-94.68465,-155.77919)"
     style="display:inline">
    <g
       id="g3881"
       transform="translate(0.40625,-1.9620773)">
      <path
         id="ellipse2544"
         transform="translate(94.68465,155.16146)"
         d="m 21.03125,41.1875 c -8.353863,0 -15.125,6.032974 -15.125,13.46875 0,7.435776 6.771137,13.46875 15.125,13.46875 8.353863,0 15.125,-6.032974 15.125,-13.46875 0,-7.435776 -6.771137,-13.46875 -15.125,-13.46875 z M 20.71875,45 c 5.832574,0 10.5625,4.373302 10.5625,9.78125 0,5.407948 -4.729926,9.78125 -10.5625,9.78125 -5.832574,0 -10.53125,-4.373302 -10.53125,-9.78125 C 10.1875,49.373302 14.886176,45 20.71875,45 z"
         style="fill-rule:evenodd;stroke:#000000;stroke-width:0.45562607;stroke-miterlimit:3.86369991"
         inkscape:connector-curvature="0" />
      <circle
         transform="matrix(0.4731757,0,0,0.43872732,81.520093,155.92273)"
         d="m 77.860003,123.085 c 0,4.01456 -3.254442,7.269 -7.269,7.269 -4.014557,0 -7.269,-3.25444 -7.269,-7.269 0,-4.01456 3.254443,-7.269 7.269,-7.269 4.014558,0 7.269,3.25444 7.269,7.269 z"
         clip-rule="evenodd"
         stroke-miterlimit="3.8637"
         cx="70.591003"
         cy="123.085"
         r="7.2690001"
         id="circle2548"
         sodipodi:cx="70.591003"
         sodipodi:cy="123.085"
         sodipodi:rx="7.2690001"
         sodipodi:ry="7.2690001"
         style="fill-rule:evenodd;stroke:#000000;stroke-miterlimit:3.86369991" />
      <path
         id="path2552"
         transform="translate(94.68465,155.16146)"
         d="m 81.3125,10.78125 c -8.066993,0.03572 -16.969811,2.132511 -26.34375,5.625 -14.44179,8.92459 -22.94715,16.1235 -27.5625,25.21875 -2.66256,2.60868 -11.28191,21.90769 -11.5625,24.8125 -7.88595,27.78592 26.1875,47.65625 26.1875,47.65625 23.9744,18.71918 14.87709,43.93904 8.65625,70.375 -12.42181,39.88865 19.75736,60.96875 39,60.96875 44.79412,-2.04754 47.93959,-56.15625 41,-56.15625 L 130.15625,60.21875 C 126.86011,40.74496 116.29233,21.24667 98.46875,14.75 93.37268,11.991584 87.586828,10.75347 81.3125,10.78125 z M 91.09375,30.875 c 7.055849,0 12.78125,5.842865 12.78125,13.03125 0,7.188385 -5.725401,13 -12.78125,13 -7.055849,0 -12.78125,-5.811615 -12.78125,-13 0,-7.188385 5.725401,-13.03125 12.78125,-13.03125 z M 57.8125,63.65625 c 3.747232,-0.0963 7.791636,0.800477 12,3.0625 3.89282,2.35685 3.75963,5.78244 -0.34375,10.25 C 54.4724,78.4341 43.12186,82.40836 35.40625,88.9375 30.792786,82.996281 41.574493,64.073546 57.8125,63.65625 z M 72.96875,86.4375 c 13.431448,-0.481887 28.52612,7.045885 38.78125,24.15625 17.41192,36.77106 20.10862,103.79661 -0.625,124 -27.44986,20.18146 -64.68122,1.77987 -58.6875,-46.1875 C 66.9479,139.56054 63.17088,125.52143 44.25,110.3125 47.775635,95.422315 59.537302,86.919387 72.96875,86.4375 z"
         style="fill-rule:evenodd;stroke:#000000;stroke-width:1.82250428;stroke-miterlimit:3.86369991"
         inkscape:connector-curvature="0" />
      <path
         style="fill-rule:evenodd;stroke:#000000;stroke-width:0.45562607;stroke-miterlimit:3.86369991"
         id="path2558"
         d="m 109.59503,328.19647 c 13.15097,1.90978 24.74046,6.37295 34.76753,13.38952 6.29655,-17.74608 4.27609,-29.0341 -6.06138,-33.86361 -6.0964,0.47822 -15.66543,7.30306 -28.70615,20.47409 z"
         stroke-miterlimit="3.8637"
         clip-rule="evenodd"
         inkscape:connector-curvature="0" />
      <polygon
         transform="matrix(0.4731757,0,0,0.43872732,81.520093,155.92273)"
         style="fill:#000000;fill-rule:evenodd;stroke:#000000;stroke-miterlimit:3.86369991"
         id="polygon2560"
         points="107.849,521.194 115.183,543.86 97.183,536.527 106.517,551.86 90.517,549.86 145.184,581.192 133.85,557.193 169.849,528.527 169.849,528.527 163.182,517.86 128.516,545.193 "
         stroke-miterlimit="3.8637"
         clip-rule="evenodd" />
      <ellipse
         transform="matrix(0.4731757,0,0,0.43872732,81.520093,155.92273)"
         style="fill-rule:evenodd;stroke:#000000;stroke-miterlimit:3.86369991"
         sodipodi:ry="10.053"
         sodipodi:rx="8.3330002"
         sodipodi:cy="99.613998"
         sodipodi:cx="219.66701"
         id="ellipse2566"
         ry="10.053"
         rx="8.3330002"
         cy="99.613998"
         cx="219.66701"
         stroke-miterlimit="3.8637"
         clip-rule="evenodd"
         d="m 228.00001,99.613998 c 0,5.552122 -3.73081,10.053002 -8.333,10.053002 -4.60219,0 -8.333,-4.50088 -8.333,-10.053002 0,-5.552118 3.73081,-10.053 8.333,-10.053 4.60219,0 8.333,4.500882 8.333,10.053 z" />
      <path
         id="ellipse2572"
         transform="translate(94.68465,155.16146)"
         d="m 240.15625,42.5 c -8.35386,0 -15.125,6.032974 -15.125,13.46875 0,7.435776 6.77114,13.46875 15.125,13.46875 8.35386,0 15.125,-6.032974 15.125,-13.46875 0,-7.435776 -6.77114,-13.46875 -15.125,-13.46875 z m 0.3125,3.8125 c 5.83257,0 10.5625,4.373302 10.5625,9.78125 0,5.407948 -4.72993,9.8125 -10.5625,9.8125 -5.83257,0 -10.5625,-4.404552 -10.5625,-9.8125 0,-5.407948 4.72993,-9.78125 10.5625,-9.78125 z"
         style="fill-rule:evenodd;stroke:#000000;stroke-width:0.45562607;stroke-miterlimit:3.86369991"
         inkscape:connector-curvature="0" />
      <circle
         transform="matrix(0.4731757,0,0,0.43872732,81.520093,155.92273)"
         d="m 544.34599,126.085 c 0,4.01511 -3.25489,7.27 -7.27,7.27 -4.01511,0 -7.27,-3.25489 -7.27,-7.27 0,-4.01511 3.25489,-7.27 7.27,-7.27 4.01511,0 7.27,3.25489 7.27,7.27 z"
         clip-rule="evenodd"
         stroke-miterlimit="3.8637"
         cx="537.07599"
         cy="126.085"
         r="7.27"
         id="circle2576"
         sodipodi:cx="537.07599"
         sodipodi:cy="126.085"
         sodipodi:rx="7.27"
         sodipodi:ry="7.27"
         style="fill-rule:evenodd;stroke:#000000;stroke-miterlimit:3.86369991" />
      <path
         id="path2580"
         transform="translate(94.68465,155.16146)"
         d="m 179.875,12.125 c -6.2743,-0.02772 -12.02913,1.178892 -17.125,3.9375 -17.82358,6.49667 -28.42213,25.99496 -31.71875,45.46875 l -0.5,129.0625 c -6.9396,0 -3.79412,54.10871 41,56.15625 19.24264,0 51.42181,-21.0801 39,-60.96875 -6.22037,-26.43551 -15.34939,-51.65582 8.625,-70.375 0,0 34.07392,-19.87033 26.1875,-47.65625 C 245.06316,64.84519 236.47506,45.54661 233.8125,42.9375 229.19667,33.84224 220.66055,26.64334 206.21875,17.71875 196.84455,14.226261 187.94196,12.160638 179.875,12.125 z m -11.1875,18.96875 c 7.05585,0 12.78125,5.811615 12.78125,13 0,7.188385 -5.7254,13.03125 -12.78125,13.03125 -7.05585,0 -12.78125,-5.842865 -12.78125,-13.03125 0,-7.188385 5.7254,-13 12.78125,-13 z M 202,64.96875 c 0.47743,-0.01972 0.93784,-0.01203 1.40625,0 16.23815,0.417063 26.98846,19.340039 22.375,25.28125 -7.71607,-6.5287 -19.06614,-10.5034 -34.0625,-11.96875 -4.10338,-4.46756 -4.20531,-7.89315 -0.3125,-10.25 3.68239,-1.979342 7.25174,-2.924427 10.59375,-3.0625 z M 185.71875,87.75 c 14.4672,-0.557122 27.47277,8.054173 31.21875,23.875 -18.92135,15.20892 -22.69838,29.24848 -8.1875,78.09375 5.99371,47.96737 -31.20591,66.36896 -58.65625,46.1875 -20.73361,-20.20339 -18.06865,-87.22939 -0.65625,-124 9.61419,-16.040967 23.51607,-23.664672 36.28125,-24.15625 z"
         style="fill-rule:evenodd;stroke:#000000;stroke-width:1.82250428;stroke-miterlimit:3.86369991"
         inkscape:connector-curvature="0" />
      <path
         style="fill-rule:evenodd;stroke:#000000;stroke-width:0.45562607;stroke-miterlimit:3.86369991"
         id="path2586"
         d="m 340.97794,329.51265 c -13.15097,1.90978 -24.74046,6.37296 -34.76753,13.38952 -6.29702,-17.74564 -4.27609,-29.03409 6.06186,-33.86361 6.09639,0.47822 15.66495,7.30306 28.70567,20.47409 z"
         stroke-miterlimit="3.8637"
         clip-rule="evenodd"
         inkscape:connector-curvature="0" />
      <polygon
         transform="matrix(0.4731757,0,0,0.43872732,81.520093,155.92273)"
         style="fill:#000000;fill-rule:evenodd;stroke:#000000;stroke-miterlimit:3.86369991"
         id="polygon2588"
         points="499.817,524.194 492.483,546.86 510.483,539.527 501.15,554.86 517.15,552.86 462.483,584.192 473.816,560.193 437.817,531.527 437.817,531.527 444.484,520.86 479.15,548.193 "
         stroke-miterlimit="3.8637"
         clip-rule="evenodd" />
      <ellipse
         transform="matrix(0.4731757,0,0,0.43872732,81.520093,155.92273)"
         style="fill-rule:evenodd;stroke:#000000;stroke-miterlimit:3.86369991"
         sodipodi:ry="10.053"
         sodipodi:rx="8.3330002"
         sodipodi:cy="100.053"
         sodipodi:cx="383.66699"
         id="ellipse2594"
         ry="10.053"
         rx="8.3330002"
         cy="100.053"
         cx="383.66699"
         stroke-miterlimit="3.8637"
         clip-rule="evenodd"
         d="m 391.99999,100.053 c 0,5.55212 -3.73081,10.053 -8.333,10.053 -4.60219,0 -8.333,-4.50088 -8.333,-10.053 0,-5.552117 3.73081,-10.052999 8.333,-10.052999 4.60219,0 8.333,4.500882 8.333,10.052999 z" />
    </g>
    <rect
       style="fill:none"
       id="rect2596"
       height="46.526497"
       width="223.99539"
       clip-rule="evenodd"
       y="289.79382"
       x="363.55521"
       inkscape:export-filename="/home/joseantonio/logo.png"
       inkscape:export-xdpi="90"
       inkscape:export-ydpi="90" />
    <rect
       style="fill:none"
       id="rect2600"
       height="51.179222"
       width="283.3479"
       clip-rule="evenodd"
       y="328.19653"
       x="363.55521"
       inkscape:export-filename="/home/joseantonio/logo.png"
       inkscape:export-xdpi="90"
       inkscape:export-ydpi="90" />
    <rect
       style="fill:none"
       id="rect2622"
       height="51.179222"
       width="236.99939"
       clip-rule="evenodd"
       y="366.59998"
       x="363.55521"
       inkscape:export-filename="/home/joseantonio/logo.png"
       inkscape:export-xdpi="90"
       inkscape:export-ydpi="90" />
  </g>
</svg>
